<?xml version="1.0" encoding="UTF-8" standalone="no"?><svg xmlns="http://www.w3.org/2000/svg" xmlns:xlink="http://www.w3.org/1999/xlink" contentStyleType="text/css" height="899px" preserveAspectRatio="none" style="width:1157px;height:899px;background:#FFFFFF;" version="1.1" viewBox="0 0 1157 899" width="1157px" zoomAndPan="magnify"><defs/><g><rect fill="#FFFFFF" height="612.9453" style="stroke:#181818;stroke-width:1.0;" width="10" x="340.5" y="186.75"/><rect fill="#FFFFFF" height="288.2578" style="stroke:#181818;stroke-width:1.0;" width="10" x="345.5" y="497.4375"/><rect fill="#FFFFFF" height="30" style="stroke:#181818;stroke-width:1.0;" width="10" x="535.5" y="343.0391"/><rect fill="#FFFFFF" height="30" style="stroke:#181818;stroke-width:1.0;" width="10" x="535.5" y="402.1719"/><rect fill="#FFFFFF" height="317.3906" style="stroke:#181818;stroke-width:1.0;" width="10" x="535.5" y="468.3047"/><rect fill="#FFFFFF" height="86.7266" style="stroke:#181818;stroke-width:1.0;" width="10" x="654.5" y="526.5703"/><rect fill="#FFFFFF" height="129.2656" style="stroke:#181818;stroke-width:1.0;" width="10" x="863" y="642.4297"/><rect fill="#FFFFFF" height="86.1328" style="stroke:#181818;stroke-width:1.0;" width="10" x="1015" y="671.5625"/><rect fill="#FFDD00" height="28" style="stroke:#181818;stroke-width:1.0;" width="10" x="1020" y="708.6953"/><rect fill="none" height="135.3984" style="stroke:#000000;stroke-width:1.5;" width="316" x="284" y="304.7734"/><line style="stroke:#181818;stroke-width:0.5;stroke-dasharray:5.0,5.0;" x1="144.5" x2="144.5" y1="68.8906" y2="831.6953"/><line style="stroke:#181818;stroke-width:0.5;stroke-dasharray:5.0,5.0;" x1="345" x2="345" y1="146.8203" y2="831.6953"/><line style="stroke:#181818;stroke-width:0.5;stroke-dasharray:5.0,5.0;" x1="540" x2="540" y1="241.6953" y2="831.6953"/><line style="stroke:#181818;stroke-width:0.5;stroke-dasharray:5.0,5.0;" x1="659" x2="659" y1="68.8906" y2="831.6953"/><line style="stroke:#181818;stroke-width:0.5;stroke-dasharray:5.0,5.0;" x1="867.5" x2="867.5" y1="573.3672" y2="831.6953"/><line style="stroke:#181818;stroke-width:0.5;stroke-dasharray:5.0,5.0;" x1="1019.5" x2="1019.5" y1="68.8906" y2="831.6953"/><rect fill="#E2E2F0" height="30.2969" rx="2.5" ry="2.5" style="stroke:#181818;stroke-width:0.5;" width="103" x="93.5" y="37.5938"/><text fill="#000000" font-family="sans-serif" font-size="14" lengthAdjust="spacing" textLength="89" x="100.5" y="57.5889">: QQuickText</text><rect fill="#E2E2F0" height="30.2969" rx="2.5" ry="2.5" style="stroke:#181818;stroke-width:0.5;" width="103" x="93.5" y="830.6953"/><text fill="#000000" font-family="sans-serif" font-size="14" lengthAdjust="spacing" textLength="89" x="100.5" y="850.6904">: QQuickText</text><rect fill="#E2E2F0" height="46.5938" rx="2.5" ry="2.5" style="stroke:#181818;stroke-width:0.5;" width="103" x="294" y="830.6953"/><text fill="#000000" font-family="sans-serif" font-size="14" lengthAdjust="spacing" textLength="89" x="301" y="850.6904">: QQuickText</text><text fill="#000000" font-family="sans-serif" font-size="14" lengthAdjust="spacing" textLength="37" x="327" y="866.9873">Node</text><rect fill="#E2E2F0" height="62.8906" rx="2.5" ry="2.5" style="stroke:#181818;stroke-width:0.5;" width="99" x="491" y="830.6953"/><text fill="#000000" font-family="sans-serif" font-size="14" lengthAdjust="spacing" textLength="53" x="512" y="850.6904">engine:</text><text fill="#000000" font-family="sans-serif" font-size="14" lengthAdjust="spacing" textLength="80" x="500.5" y="866.9873">QQuickText</text><text fill="#000000" font-family="sans-serif" font-size="14" lengthAdjust="spacing" textLength="85" x="498" y="883.2842">NodeEngine</text><rect fill="#E2E2F0" height="46.5938" rx="2.5" ry="2.5" style="stroke:#181818;stroke-width:0.5;" width="119" x="600" y="21.2969"/><text fill="#000000" font-family="sans-serif" font-size="14" lengthAdjust="spacing" textLength="89" x="615" y="41.292">: QSGDefault</text><text fill="#000000" font-family="sans-serif" font-size="14" lengthAdjust="spacing" textLength="105" x="607" y="57.5889">RenderContext</text><rect fill="#E2E2F0" height="46.5938" rx="2.5" ry="2.5" style="stroke:#181818;stroke-width:0.5;" width="119" x="600" y="830.6953"/><text fill="#000000" font-family="sans-serif" font-size="14" lengthAdjust="spacing" textLength="89" x="615" y="850.6904">: QSGDefault</text><text fill="#000000" font-family="sans-serif" font-size="14" lengthAdjust="spacing" textLength="105" x="607" y="866.9873">RenderContext</text><rect fill="#E2E2F0" height="46.5938" rx="2.5" ry="2.5" style="stroke:#181818;stroke-width:0.5;" width="155" x="790.5" y="830.6953"/><text fill="#000000" font-family="sans-serif" font-size="14" lengthAdjust="spacing" textLength="141" x="797.5" y="850.6904">node : QSGDistance</text><text fill="#000000" font-family="sans-serif" font-size="14" lengthAdjust="spacing" textLength="108" x="814" y="866.9873">FieldGlyphNode</text><rect fill="#E2E2F0" height="46.5938" rx="2.5" ry="2.5" style="stroke:#181818;stroke-width:0.5;" width="129" x="955.5" y="21.2969"/><text fill="#000000" font-family="sans-serif" font-size="14" lengthAdjust="spacing" textLength="101" x="969.5" y="41.292">: QSGDistance</text><text fill="#000000" font-family="sans-serif" font-size="14" lengthAdjust="spacing" textLength="115" x="962.5" y="57.5889">FieldGlyphCache</text><rect fill="#E2E2F0" height="46.5938" rx="2.5" ry="2.5" style="stroke:#181818;stroke-width:0.5;" width="129" x="955.5" y="830.6953"/><text fill="#000000" font-family="sans-serif" font-size="14" lengthAdjust="spacing" textLength="101" x="969.5" y="850.6904">: QSGDistance</text><text fill="#000000" font-family="sans-serif" font-size="14" lengthAdjust="spacing" textLength="115" x="962.5" y="866.9873">FieldGlyphCache</text><rect fill="#FFFFFF" height="612.9453" style="stroke:#181818;stroke-width:1.0;" width="10" x="340.5" y="186.75"/><rect fill="#FFFFFF" height="288.2578" style="stroke:#181818;stroke-width:1.0;" width="10" x="345.5" y="497.4375"/><rect fill="#FFFFFF" height="30" style="stroke:#181818;stroke-width:1.0;" width="10" x="535.5" y="343.0391"/><rect fill="#FFFFFF" height="30" style="stroke:#181818;stroke-width:1.0;" width="10" x="535.5" y="402.1719"/><rect fill="#FFFFFF" height="317.3906" style="stroke:#181818;stroke-width:1.0;" width="10" x="535.5" y="468.3047"/><rect fill="#FFFFFF" height="86.7266" style="stroke:#181818;stroke-width:1.0;" width="10" x="654.5" y="526.5703"/><rect fill="#FFFFFF" height="129.2656" style="stroke:#181818;stroke-width:1.0;" width="10" x="863" y="642.4297"/><rect fill="#FFFFFF" height="86.1328" style="stroke:#181818;stroke-width:1.0;" width="10" x="1015" y="671.5625"/><rect fill="#FFDD00" height="28" style="stroke:#181818;stroke-width:1.0;" width="10" x="1020" y="708.6953"/><polygon fill="#181818" points="133,96.0234,143,100.0234,133,104.0234,137,100.0234" style="stroke:#181818;stroke-width:1.0;"/><line style="stroke:#181818;stroke-width:1.0;" x1="0" x2="139" y1="100.0234" y2="100.0234"/><text fill="#000000" font-family="sans-serif" font-size="13" lengthAdjust="spacing" textLength="121" x="7" y="94.9575">updatePaintNode()</text><polygon fill="#181818" points="282,125.1563,292,129.1563,282,133.1563,286,129.1563" style="stroke:#181818;stroke-width:1.0;"/><line style="stroke:#181818;stroke-width:1.0;stroke-dasharray:2.0,2.0;" x1="145" x2="288" y1="129.1563" y2="129.1563"/><text fill="#000000" font-family="sans-serif" font-size="13" lengthAdjust="spacing" textLength="125" x="152" y="124.0903">node = create(this)</text><rect fill="#E2E2F0" height="46.5938" rx="2.5" ry="2.5" style="stroke:#181818;stroke-width:0.5;" width="103" x="294" y="108.0234"/><text fill="#000000" font-family="sans-serif" font-size="14" lengthAdjust="spacing" textLength="89" x="301" y="128.0186">: QQuickText</text><text fill="#000000" font-family="sans-serif" font-size="14" lengthAdjust="spacing" textLength="37" x="327" y="144.3154">Node</text><polygon fill="#181818" points="328.5,182.75,338.5,186.75,328.5,190.75,332.5,186.75" style="stroke:#181818;stroke-width:1.0;"/><line style="stroke:#181818;stroke-width:1.0;" x1="145" x2="334.5" y1="186.75" y2="186.75"/><text fill="#000000" font-family="sans-serif" font-size="13" lengthAdjust="spacing" textLength="104" x="152" y="181.6841">addTextLayout()</text><polygon fill="#181818" points="479,211.8828,489,215.8828,479,219.8828,483,215.8828" style="stroke:#181818;stroke-width:1.0;"/><line style="stroke:#181818;stroke-width:1.0;stroke-dasharray:2.0,2.0;" x1="350.5" x2="485" y1="215.8828" y2="215.8828"/><text fill="#000000" font-family="sans-serif" font-size="13" lengthAdjust="spacing" textLength="51" x="357.5" y="210.8169">create()</text><rect fill="#E2E2F0" height="62.8906" rx="2.5" ry="2.5" style="stroke:#181818;stroke-width:0.5;" width="99" x="491" y="194.75"/><text fill="#000000" font-family="sans-serif" font-size="14" lengthAdjust="spacing" textLength="53" x="512" y="214.7451">engine:</text><text fill="#000000" font-family="sans-serif" font-size="14" lengthAdjust="spacing" textLength="80" x="500.5" y="231.042">QQuickText</text><text fill="#000000" font-family="sans-serif" font-size="14" lengthAdjust="spacing" textLength="85" x="498" y="247.3389">NodeEngine</text><polygon fill="#181818" points="528.5,285.7734,538.5,289.7734,528.5,293.7734,532.5,289.7734" style="stroke:#181818;stroke-width:1.0;"/><line style="stroke:#181818;stroke-width:1.0;stroke-dasharray:2.0,2.0;" x1="350.5" x2="534.5" y1="289.7734" y2="289.7734"/><text fill="#000000" font-family="sans-serif" font-size="13" lengthAdjust="spacing" textLength="130" x="357.5" y="284.7075">mergeFormats(text)</text><path d="M284,304.7734 L361,304.7734 L361,311.9063 L351,321.9063 L284,321.9063 L284,304.7734 " fill="#EEEEEE" style="stroke:#000000;stroke-width:1.5;"/><rect fill="none" height="135.3984" style="stroke:#000000;stroke-width:1.5;" width="316" x="284" y="304.7734"/><text fill="#000000" font-family="sans-serif" font-size="13" font-weight="bold" lengthAdjust="spacing" textLength="32" x="299" y="317.8403">loop</text><text fill="#000000" font-family="sans-serif" font-size="11" font-weight="bold" lengthAdjust="spacing" textLength="113" x="376" y="316.9839">[循环 lineCount 次]</text><polygon fill="#181818" points="523.5,339.0391,533.5,343.0391,523.5,347.0391,527.5,343.0391" style="stroke:#181818;stroke-width:1.0;"/><line style="stroke:#181818;stroke-width:1.0;" x1="350.5" x2="529.5" y1="343.0391" y2="343.0391"/><text fill="#000000" font-family="sans-serif" font-size="13" lengthAdjust="spacing" textLength="126" x="357.5" y="337.9731">setCurrentLine(line)</text><polygon fill="#181818" points="523.5,398.1719,533.5,402.1719,523.5,406.1719,527.5,402.1719" style="stroke:#181818;stroke-width:1.0;"/><line style="stroke:#181818;stroke-width:1.0;" x1="350.5" x2="529.5" y1="402.1719" y2="402.1719"/><text fill="#000000" font-family="sans-serif" font-size="13" lengthAdjust="spacing" textLength="166" x="357.5" y="397.106">addGlyphsForRanges(line)</text><polygon fill="#181818" points="523.5,464.3047,533.5,468.3047,523.5,472.3047,527.5,468.3047" style="stroke:#181818;stroke-width:1.0;"/><line style="stroke:#181818;stroke-width:1.0;" x1="350.5" x2="529.5" y1="468.3047" y2="468.3047"/><text fill="#000000" font-family="sans-serif" font-size="13" lengthAdjust="spacing" textLength="151" x="357.5" y="463.2388">addToSceneGraph(this)</text><polygon fill="#181818" points="366.5,493.4375,356.5,497.4375,366.5,501.4375,362.5,497.4375" style="stroke:#181818;stroke-width:1.0;"/><line style="stroke:#181818;stroke-width:1.0;" x1="360.5" x2="534.5" y1="497.4375" y2="497.4375"/><text fill="#000000" font-family="sans-serif" font-size="13" lengthAdjust="spacing" textLength="77" x="372.5" y="492.3716">addGlyphs()</text><polygon fill="#181818" points="642.5,522.5703,652.5,526.5703,642.5,530.5703,646.5,526.5703" style="stroke:#181818;stroke-width:1.0;"/><line style="stroke:#181818;stroke-width:1.0;" x1="355.5" x2="648.5" y1="526.5703" y2="526.5703"/><text fill="#000000" font-family="sans-serif" font-size="13" lengthAdjust="spacing" textLength="111" x="362.5" y="521.5044">createGlyphNode</text><polygon fill="#181818" points="778.5,551.7031,788.5,555.7031,778.5,559.7031,782.5,555.7031" style="stroke:#181818;stroke-width:1.0;"/><line style="stroke:#181818;stroke-width:1.0;stroke-dasharray:2.0,2.0;" x1="664.5" x2="784.5" y1="555.7031" y2="555.7031"/><text fill="#000000" font-family="sans-serif" font-size="13" lengthAdjust="spacing" textLength="102" x="671.5" y="550.6372">node = create()</text><rect fill="#E2E2F0" height="46.5938" rx="2.5" ry="2.5" style="stroke:#181818;stroke-width:0.5;" width="155" x="790.5" y="534.5703"/><text fill="#000000" font-family="sans-serif" font-size="14" lengthAdjust="spacing" textLength="141" x="797.5" y="554.5654">node : QSGDistance</text><text fill="#000000" font-family="sans-serif" font-size="14" lengthAdjust="spacing" textLength="108" x="814" y="570.8623">FieldGlyphNode</text><polygon fill="#181818" points="366.5,609.2969,356.5,613.2969,366.5,617.2969,362.5,613.2969" style="stroke:#181818;stroke-width:1.0;"/><line style="stroke:#181818;stroke-width:1.0;stroke-dasharray:2.0,2.0;" x1="360.5" x2="658.5" y1="613.2969" y2="613.2969"/><text fill="#000000" font-family="sans-serif" font-size="13" lengthAdjust="spacing" textLength="32" x="372.5" y="608.231">node</text><polygon fill="#181818" points="851,638.4297,861,642.4297,851,646.4297,855,642.4297" style="stroke:#181818;stroke-width:1.0;"/><line style="stroke:#181818;stroke-width:1.0;" x1="355.5" x2="857" y1="642.4297" y2="642.4297"/><text fill="#000000" font-family="sans-serif" font-size="13" lengthAdjust="spacing" textLength="73" x="362.5" y="637.3638">setGlyphs()</text><polygon fill="#181818" points="1003,667.5625,1013,671.5625,1003,675.5625,1007,671.5625" style="stroke:#181818;stroke-width:1.0;"/><line style="stroke:#181818;stroke-width:1.0;stroke-dasharray:2.0,2.0;" x1="873" x2="1009" y1="671.5625" y2="671.5625"/><text fill="#000000" font-family="sans-serif" font-size="13" lengthAdjust="spacing" textLength="107" x="880" y="666.4966">populate(glyphs)</text><line style="stroke:#181818;stroke-width:1.0;" x1="1030" x2="1072" y1="700.6953" y2="700.6953"/><line style="stroke:#181818;stroke-width:1.0;" x1="1072" x2="1072" y1="700.6953" y2="713.6953"/><line style="stroke:#181818;stroke-width:1.0;" x1="1031" x2="1072" y1="713.6953" y2="713.6953"/><polygon fill="#181818" points="1041,709.6953,1031,713.6953,1041,717.6953,1037,713.6953" style="stroke:#181818;stroke-width:1.0;"/><text fill="#000000" font-family="sans-serif" font-size="13" lengthAdjust="spacing" textLength="113" x="1037" y="695.6294">gd = glyphData(i)</text><polygon fill="#181818" points="884,753.6953,874,757.6953,884,761.6953,880,757.6953" style="stroke:#181818;stroke-width:1.0;"/><line style="stroke:#181818;stroke-width:1.0;stroke-dasharray:2.0,2.0;" x1="878" x2="1019" y1="757.6953" y2="757.6953"/><polygon fill="#181818" points="366.5,767.6953,356.5,771.6953,366.5,775.6953,362.5,771.6953" style="stroke:#181818;stroke-width:1.0;"/><line style="stroke:#181818;stroke-width:1.0;stroke-dasharray:2.0,2.0;" x1="360.5" x2="867" y1="771.6953" y2="771.6953"/><polygon fill="#181818" points="528.5,781.6953,538.5,785.6953,528.5,789.6953,532.5,785.6953" style="stroke:#181818;stroke-width:1.0;"/><line style="stroke:#181818;stroke-width:1.0;stroke-dasharray:2.0,2.0;" x1="350.5" x2="534.5" y1="785.6953" y2="785.6953"/><polygon fill="#181818" points="156,795.6953,146,799.6953,156,803.6953,152,799.6953" style="stroke:#181818;stroke-width:1.0;"/><line style="stroke:#181818;stroke-width:1.0;stroke-dasharray:2.0,2.0;" x1="150" x2="344.5" y1="799.6953" y2="799.6953"/><polygon fill="#181818" points="11,809.6953,1,813.6953,11,817.6953,7,813.6953" style="stroke:#181818;stroke-width:1.0;"/><line style="stroke:#181818;stroke-width:1.0;stroke-dasharray:2.0,2.0;" x1="5" x2="144" y1="813.6953" y2="813.6953"/><!--SRC=[fLCxRjmm4ErrYe7JI0O4sAtWkDdDRcC4yQVpDeGqrXAHILga0liIleDRmq1kaDiakOQ75AMGaXOfp8wSzzwy-L2nrl2IAoOC71LmUTdnyliDFfeZO1eU7aoY3Y5sugkiSC2968YYvW8Bs8afuOkBZ3GydMMutgxnZdKD4QvGLDYkf3239Lt7U46Iq9EuDaoKk1CRZasrRPxKVdIeQmjSIhN0Mh5otzDgUotjDKbkytFhc99rgc86lp4kZ4sGPebzp_kuWEFZ0fojpr2sICZKxBdEaXxbGGMmgh9TkM1FiZEamKh3Vn2wxoRqi44KJvsiryiMmWNSOrlZHhRtpEZKDenI0fr6IWM_Vxt-VVu93VL-9Jig_y_RYuiEIe6GHhFgsXQ5kI1uQZcPnm94Dcbwmtk5ov6PEjNjkgp9wXKJDUeFPQ0DwSjSIdGZhqiKk6sPslif7CxWYT64UgVfO6uwexX4NSCmed7xvbNH1iDuY98xfbkO-UPaSwmt9qBne3M1_891_rremfFA8eEHDWmqc_pVXo0L9LNNM9VkLOTUHx7W1q5m0fsfQbrH-UvbpGnBUHOH5uJXqsPz4e62TXp8xqiwo_DbnFyKN4SjUzAiQ11Hn6-NvGJBCzdfvD2UXxyzcPAIMw_w3W00]--></g></svg>