<?xml version="1.0" encoding="UTF-8" standalone="no"?><svg xmlns="http://www.w3.org/2000/svg" xmlns:xlink="http://www.w3.org/1999/xlink" contentStyleType="text/css" height="724px" preserveAspectRatio="none" style="width:1171px;height:724px;background:#FFFFFF;" version="1.1" viewBox="0 0 1171 724" width="1171px" zoomAndPan="magnify"><defs/><g><rect fill="#FFFFFF" height="538.5156" style="stroke:#181818;stroke-width:1.0;" width="10" x="155" y="100.0234"/><rect fill="#FFFFFF" height="349.9297" style="stroke:#181818;stroke-width:1.0;" width="10" x="313" y="218.1797"/><rect fill="#FFFFFF" height="291.6641" style="stroke:#181818;stroke-width:1.0;" width="10" x="511" y="262.4453"/><rect fill="#FFFFFF" height="28" style="stroke:#181818;stroke-width:1.0;" width="10" x="516" y="299.5781"/><rect fill="#FFFFFF" height="28" style="stroke:#181818;stroke-width:1.0;" width="10" x="516" y="505.1094"/><rect fill="#FFFFFF" height="30" style="stroke:#181818;stroke-width:1.0;" width="10" x="717" y="378.8438"/><rect fill="#FFFFFF" height="30" style="stroke:#181818;stroke-width:1.0;" width="10" x="835" y="437.9766"/><line style="stroke:#181818;stroke-width:0.5;stroke-dasharray:5.0,5.0;" x1="159.5" x2="159.5" y1="68.8906" y2="656.5391"/><line style="stroke:#181818;stroke-width:0.5;stroke-dasharray:5.0,5.0;" x1="318" x2="318" y1="68.8906" y2="656.5391"/><line style="stroke:#181818;stroke-width:0.5;stroke-dasharray:5.0,5.0;" x1="516" x2="516" y1="68.8906" y2="656.5391"/><line style="stroke:#181818;stroke-width:0.5;stroke-dasharray:5.0,5.0;" x1="722" x2="722" y1="68.8906" y2="656.5391"/><line style="stroke:#181818;stroke-width:0.5;stroke-dasharray:5.0,5.0;" x1="840" x2="840" y1="68.8906" y2="656.5391"/><line style="stroke:#181818;stroke-width:0.5;stroke-dasharray:5.0,5.0;" x1="982" x2="982" y1="154.9688" y2="656.5391"/><line style="stroke:#181818;stroke-width:0.5;stroke-dasharray:5.0,5.0;" x1="1113" x2="1113" y1="606.7578" y2="656.5391"/><rect fill="#E2E2F0" height="46.5938" rx="2.5" ry="2.5" style="stroke:#181818;stroke-width:0.5;" width="129" x="95.5" y="21.2969"/><text fill="#000000" font-family="sans-serif" font-size="14" lengthAdjust="spacing" textLength="101" x="109.5" y="41.292">: QSGDistance</text><text fill="#000000" font-family="sans-serif" font-size="14" lengthAdjust="spacing" textLength="115" x="102.5" y="57.5889">FieldGlyphCache</text><rect fill="#E2E2F0" height="46.5938" rx="2.5" ry="2.5" style="stroke:#181818;stroke-width:0.5;" width="129" x="95.5" y="655.5391"/><text fill="#000000" font-family="sans-serif" font-size="14" lengthAdjust="spacing" textLength="101" x="109.5" y="675.5342">: QSGDistance</text><text fill="#000000" font-family="sans-serif" font-size="14" lengthAdjust="spacing" textLength="115" x="102.5" y="691.8311">FieldGlyphCache</text><rect fill="#E2E2F0" height="30.2969" rx="2.5" ry="2.5" style="stroke:#181818;stroke-width:0.5;" width="94" x="271" y="37.5938"/><text fill="#000000" font-family="sans-serif" font-size="14" lengthAdjust="spacing" textLength="80" x="278" y="57.5889">: QRawFont</text><rect fill="#E2E2F0" height="30.2969" rx="2.5" ry="2.5" style="stroke:#181818;stroke-width:0.5;" width="94" x="271" y="655.5391"/><text fill="#000000" font-family="sans-serif" font-size="14" lengthAdjust="spacing" textLength="80" x="278" y="675.5342">: QRawFont</text><rect fill="#E2E2F0" height="30.2969" rx="2.5" ry="2.5" style="stroke:#181818;stroke-width:0.5;" width="130" x="451" y="37.5938"/><text fill="#000000" font-family="sans-serif" font-size="14" lengthAdjust="spacing" textLength="116" x="458" y="57.5889">: QFontEngineFT</text><rect fill="#E2E2F0" height="30.2969" rx="2.5" ry="2.5" style="stroke:#181818;stroke-width:0.5;" width="130" x="451" y="655.5391"/><text fill="#000000" font-family="sans-serif" font-size="14" lengthAdjust="spacing" textLength="116" x="458" y="675.5342">: QFontEngineFT</text><rect fill="#E2E2F0" height="30.2969" rx="2.5" ry="2.5" style="stroke:#181818;stroke-width:0.5;" width="88" x="678" y="37.5938"/><text fill="#000000" font-family="sans-serif" font-size="14" lengthAdjust="spacing" textLength="74" x="685" y="57.5889">: FreeType</text><rect fill="#E2E2F0" height="30.2969" rx="2.5" ry="2.5" style="stroke:#181818;stroke-width:0.5;" width="88" x="678" y="655.5391"/><text fill="#000000" font-family="sans-serif" font-size="14" lengthAdjust="spacing" textLength="74" x="685" y="675.5342">: FreeType</text><rect fill="#E2E2F0" height="30.2969" rx="2.5" ry="2.5" style="stroke:#181818;stroke-width:0.5;" width="128" x="776" y="37.5938"/><text fill="#000000" font-family="sans-serif" font-size="14" lengthAdjust="spacing" textLength="114" x="783" y="57.5889">: QFreetypeFace</text><rect fill="#E2E2F0" height="30.2969" rx="2.5" ry="2.5" style="stroke:#181818;stroke-width:0.5;" width="128" x="776" y="655.5391"/><text fill="#000000" font-family="sans-serif" font-size="14" lengthAdjust="spacing" textLength="114" x="783" y="675.5342">: QFreetypeFace</text><rect fill="#E2E2F0" height="62.8906" rx="2.5" ry="2.5" style="stroke:#181818;stroke-width:0.5;" width="137" x="914" y="655.5391"/><text fill="#000000" font-family="sans-serif" font-size="14" lengthAdjust="spacing" textLength="123" x="921" y="675.5342">gd : QSGDistance</text><text fill="#000000" font-family="sans-serif" font-size="14" lengthAdjust="spacing" textLength="115" x="925" y="691.8311">FieldGlyphCache</text><text fill="#000000" font-family="sans-serif" font-size="14" lengthAdjust="spacing" textLength="81" x="942" y="708.1279">::GlyphData</text><rect fill="#E2E2F0" height="30.2969" rx="2.5" ry="2.5" style="stroke:#181818;stroke-width:0.5;" width="104" x="1061" y="655.5391"/><text fill="#000000" font-family="sans-serif" font-size="14" lengthAdjust="spacing" textLength="90" x="1068" y="675.5342">: QTransform</text><rect fill="#FFFFFF" height="538.5156" style="stroke:#181818;stroke-width:1.0;" width="10" x="155" y="100.0234"/><rect fill="#FFFFFF" height="349.9297" style="stroke:#181818;stroke-width:1.0;" width="10" x="313" y="218.1797"/><rect fill="#FFFFFF" height="291.6641" style="stroke:#181818;stroke-width:1.0;" width="10" x="511" y="262.4453"/><rect fill="#FFFFFF" height="28" style="stroke:#181818;stroke-width:1.0;" width="10" x="516" y="299.5781"/><rect fill="#FFFFFF" height="28" style="stroke:#181818;stroke-width:1.0;" width="10" x="516" y="505.1094"/><rect fill="#FFFFFF" height="30" style="stroke:#181818;stroke-width:1.0;" width="10" x="717" y="378.8438"/><rect fill="#FFFFFF" height="30" style="stroke:#181818;stroke-width:1.0;" width="10" x="835" y="437.9766"/><polygon fill="#181818" points="143,96.0234,153,100.0234,143,104.0234,147,100.0234" style="stroke:#181818;stroke-width:1.0;"/><line style="stroke:#181818;stroke-width:1.0;" x1="0" x2="149" y1="100.0234" y2="100.0234"/><text fill="#000000" font-family="sans-serif" font-size="13" lengthAdjust="spacing" textLength="109" x="7" y="94.9575">glyphData(index)</text><polygon fill="#181818" points="902,125.1563,912,129.1563,902,133.1563,906,129.1563" style="stroke:#181818;stroke-width:1.0;"/><line style="stroke:#181818;stroke-width:1.0;" x1="165" x2="908" y1="129.1563" y2="129.1563"/><text fill="#000000" font-family="sans-serif" font-size="13" lengthAdjust="spacing" textLength="196" x="172" y="124.0903">m_glyphsData[index] = create</text><rect fill="#E2E2F0" height="62.8906" rx="2.5" ry="2.5" style="stroke:#181818;stroke-width:0.5;" width="137" x="914" y="108.0234"/><text fill="#000000" font-family="sans-serif" font-size="14" lengthAdjust="spacing" textLength="123" x="921" y="128.0186">gd : QSGDistance</text><text fill="#000000" font-family="sans-serif" font-size="14" lengthAdjust="spacing" textLength="115" x="925" y="144.3154">FieldGlyphCache</text><text fill="#000000" font-family="sans-serif" font-size="14" lengthAdjust="spacing" textLength="81" x="942" y="160.6123">::GlyphData</text><polygon fill="#181818" points="301,214.1797,311,218.1797,301,222.1797,305,218.1797" style="stroke:#181818;stroke-width:1.0;"/><line style="stroke:#181818;stroke-width:1.0;" x1="165" x2="307" y1="218.1797" y2="218.1797"/><text fill="#000000" font-family="sans-serif" font-size="13" lengthAdjust="spacing" textLength="64" x="172" y="197.981">gd.path =</text><text fill="#000000" font-family="sans-serif" font-size="13" lengthAdjust="spacing" textLength="129" x="172" y="213.1138">pathForGlyph(index)</text><polygon fill="#181818" points="499,258.4453,509,262.4453,499,266.4453,503,262.4453" style="stroke:#181818;stroke-width:1.0;"/><line style="stroke:#181818;stroke-width:1.0;" x1="323" x2="505" y1="262.4453" y2="262.4453"/><text fill="#000000" font-family="sans-serif" font-size="13" lengthAdjust="spacing" textLength="165" x="330" y="242.2466">addGlyphsToPath(&amp;index,</text><text fill="#000000" font-family="sans-serif" font-size="13" lengthAdjust="spacing" textLength="130" x="330" y="257.3794">&amp;position, 1, &amp;path)</text><line style="stroke:#181818;stroke-width:1.0;" x1="526" x2="568" y1="291.5781" y2="291.5781"/><line style="stroke:#181818;stroke-width:1.0;" x1="568" x2="568" y1="291.5781" y2="304.5781"/><line style="stroke:#181818;stroke-width:1.0;" x1="527" x2="568" y1="304.5781" y2="304.5781"/><polygon fill="#181818" points="537,300.5781,527,304.5781,537,308.5781,533,304.5781" style="stroke:#181818;stroke-width:1.0;"/><text fill="#000000" font-family="sans-serif" font-size="13" lengthAdjust="spacing" textLength="69" x="533" y="286.5122">lockFace();</text><polygon fill="#181818" points="705,374.8438,715,378.8438,705,382.8438,709,378.8438" style="stroke:#181818;stroke-width:1.0;"/><line style="stroke:#181818;stroke-width:1.0;" x1="521" x2="711" y1="378.8438" y2="378.8438"/><text fill="#000000" font-family="sans-serif" font-size="13" lengthAdjust="spacing" textLength="173" x="528" y="358.645">FT_Load_Glyph(face, glyph,</text><text fill="#000000" font-family="sans-serif" font-size="13" lengthAdjust="spacing" textLength="143" x="528" y="373.7778">FT_LOAD_NO_BITMAP)</text><polygon fill="#181818" points="823,433.9766,833,437.9766,823,441.9766,827,437.9766" style="stroke:#181818;stroke-width:1.0;"/><line style="stroke:#181818;stroke-width:1.0;" x1="521" x2="829" y1="437.9766" y2="437.9766"/><text fill="#000000" font-family="sans-serif" font-size="13" lengthAdjust="spacing" textLength="143" x="528" y="432.9106">addGlyphToPath(path)</text><line style="stroke:#181818;stroke-width:1.0;" x1="526" x2="568" y1="497.1094" y2="497.1094"/><line style="stroke:#181818;stroke-width:1.0;" x1="568" x2="568" y1="497.1094" y2="510.1094"/><line style="stroke:#181818;stroke-width:1.0;" x1="527" x2="568" y1="510.1094" y2="510.1094"/><polygon fill="#181818" points="537,506.1094,527,510.1094,537,514.1094,533,510.1094" style="stroke:#181818;stroke-width:1.0;"/><text fill="#000000" font-family="sans-serif" font-size="13" lengthAdjust="spacing" textLength="85" x="533" y="492.0435">unlockFace();</text><polygon fill="#181818" points="334,550.1094,324,554.1094,334,558.1094,330,554.1094" style="stroke:#181818;stroke-width:1.0;"/><line style="stroke:#181818;stroke-width:1.0;stroke-dasharray:2.0,2.0;" x1="328" x2="515" y1="554.1094" y2="554.1094"/><polygon fill="#181818" points="176,564.1094,166,568.1094,176,572.1094,172,568.1094" style="stroke:#181818;stroke-width:1.0;"/><line style="stroke:#181818;stroke-width:1.0;stroke-dasharray:2.0,2.0;" x1="170" x2="317" y1="568.1094" y2="568.1094"/><polygon fill="#181818" points="1049,593.2422,1059,597.2422,1049,601.2422,1053,597.2422" style="stroke:#181818;stroke-width:1.0;"/><line style="stroke:#181818;stroke-width:1.0;" x1="165" x2="1055" y1="597.2422" y2="597.2422"/><text fill="#000000" font-family="sans-serif" font-size="13" lengthAdjust="spacing" textLength="84" x="172" y="592.1763">scale(factor);</text><rect fill="#E2E2F0" height="30.2969" rx="2.5" ry="2.5" style="stroke:#181818;stroke-width:0.5;" width="104" x="1061" y="576.1094"/><text fill="#000000" font-family="sans-serif" font-size="14" lengthAdjust="spacing" textLength="90" x="1068" y="596.1045">: QTransform</text><polygon fill="#181818" points="11,634.5391,1,638.5391,11,642.5391,7,638.5391" style="stroke:#181818;stroke-width:1.0;"/><line style="stroke:#181818;stroke-width:1.0;stroke-dasharray:2.0,2.0;" x1="5" x2="159" y1="638.5391" y2="638.5391"/><text fill="#000000" font-family="sans-serif" font-size="13" lengthAdjust="spacing" textLength="136" x="17" y="633.4731">m_glyphsData[index]</text><!--SRC=[dLBBRi8m4BpdArOS445GgTVq8T7Ie4fjeMrkK4MM7s0LxCXn7_nzlKu0Gz8UwfEzEpkpEzw262kfB8Yoq4dW-NKobgKbYlA5IYLViybwMwnk2Ltn3f0IblYa-8oAaz8NyfLgPJrCk4i3WDaxjPIAfvb7SVyunQM6ysnRL7gYXSRbhSkdXEumuXYqPF3tA0kL9Fur9fPKSx66JcQ8AeKs6myeALbp4qNpuNLWWjDPxdXwKZ7-7KU4Mlb9B0-zWh066HZq-mbiSXykiNpkoz_W2gZXhZo2HXMwYehih21svP0BXPTK6p_ChW60VGl-7y0TN-eeAiiT2M6L7sMcPuwZr_N50qVPBNGfhTHg0ES3wA92x3dshFM_WJyrOyYzrlGTVwSNNzIWzbB6J-CDJe43frd-e0dBgoc5OnvKpc2xc9oEnldJDB-vpnv7i_XKKzYcdekrQ8d0cDgNm_X7ZAADKaI_U_AX_k_A_WClXyCmreOCDWRHzGA4RMAaiLhLUlkbz5TqsMhZMfqZpT76jsnj50WSi3y0]--></g></svg>