<svg width="1563" height="1045" xmlns="http://www.w3.org/2000/svg" xmlns:xlink="http://www.w3.org/1999/xlink" overflow="hidden"><defs><clipPath id="clip0"><rect x="197" y="100" width="1563" height="1045"/></clipPath></defs><g clip-path="url(#clip0)" transform="translate(-197 -100)"><rect x="200" y="105" width="1559" height="1040" fill="#207FD2" fill-opacity="1"/><path d="M569.5 614.5C569.5 568.108 607.332 530.5 654 530.5 700.668 530.5 738.5 568.108 738.5 614.5 738.5 660.892 700.668 698.5 654 698.5 607.332 698.5 569.5 660.892 569.5 614.5Z" stroke="#FFDD00" stroke-width="20.625" stroke-linecap="butt" stroke-linejoin="miter" stroke-miterlimit="8" stroke-opacity="1" fill="none" fill-rule="evenodd"/><path d="M589.5 614.5C589.5 578.602 618.602 549.5 654.5 549.5 690.398 549.5 719.5 578.602 719.5 614.5 719.5 650.399 690.398 679.5 654.5 679.5 618.602 679.5 589.5 650.399 589.5 614.5Z" stroke="#0A0B0B" stroke-width="20.625" stroke-linecap="butt" stroke-linejoin="miter" stroke-miterlimit="8" stroke-opacity="1" fill="#F2F2F2" fill-rule="evenodd" fill-opacity="1"/><text fill="#F2F2F2" fill-opacity="1" font-family="Inter,Lucida Grande,sans-serif" font-style="normal" font-variant="normal" font-weight="700" font-stretch="normal" font-size="165" text-anchor="start" direction="ltr" writing-mode="lr-tb" unicode-bidi="normal" text-decoration="none" transform="matrix(1 0 0 1 790.864 683)">Pinned</text><path d="M615 614C615 592.461 632.461 575 654 575 675.539 575 693 592.461 693 614 693 635.539 675.539 653 654 653 632.461 653 615 635.539 615 614Z" fill="#0A0B0B" fill-rule="evenodd" fill-opacity="1"/></g></svg>