<svg width="3126" height="2080" xmlns="http://www.w3.org/2000/svg" xmlns:xlink="http://www.w3.org/1999/xlink" overflow="hidden"><defs><clipPath id="clip0"><rect x="137" y="197" width="3126" height="2080"/></clipPath></defs><g clip-path="url(#clip0)" transform="translate(-137 -197)"><rect x="141" y="198" width="3119" height="2079" fill="#FFDD00" fill-opacity="1"/><rect x="411" y="456" width="65" height="325" fill="#000000" fill-opacity="1"/><rect x="607" y="456" width="64.9999" height="325" fill="#000000" fill-opacity="1"/><rect x="445" y="588" width="194" height="64.9999" fill="#000000" fill-opacity="1"/><rect x="282" y="325" width="390" height="65.0003" fill="#000000" fill-opacity="1"/><rect x="282" y="390" width="65" height="130" fill="#000000" fill-opacity="1"/><rect x="411" y="848" width="390" height="64.9999" fill="#000000" fill-opacity="1"/><rect x="736" y="718" width="64.9999" height="130" fill="#000000" fill-opacity="1"/><path d="M873 880C873 865.641 884.641 854 899 854 913.359 854 925 865.641 925 880 925 894.359 913.359 906 899 906 884.641 906 873 894.359 873 880Z" stroke="#0A0B0B" stroke-width="27.5" stroke-linecap="butt" stroke-linejoin="miter" stroke-miterlimit="8" stroke-opacity="1" fill="#FFFFFF" fill-rule="evenodd" fill-opacity="1"/></g></svg>